<svg xmlns="http://www.w3.org/2000/svg" width="900" height="1150" viewBox="0 0 900 1150"><rect width="900" height="1150" fill="#f8fafc"/><style>text{font-family:Arial,sans-serif;fill:#0f172a}.t{font-size:23px;font-weight:700}.s{font-size:18px}.a{stroke:#64748b;stroke-width:4;marker-end:url(#m)}</style><defs><marker id="m" viewBox="0 0 10 10" refX="9" refY="5" markerWidth="8" markerHeight="8" orient="auto"><path d="M0 0 10 5 0 10z" fill="#64748b"/></marker></defs><text x="450" y="48" text-anchor="middle" class="t">AI 자동 QA 테스트 실행 흐름</text><g stroke-width="3"><rect x="190" y="80" width="520" height="80" rx="14" fill="#dbeafe" stroke="#2563eb"/><rect x="190" y="220" width="520" height="80" rx="14" fill="#dcfce7" stroke="#16a34a"/><rect x="190" y="360" width="520" height="140" rx="14" fill="#fef3c7" stroke="#d97706"/><rect x="190" y="560" width="520" height="80" rx="14" fill="#ede9fe" stroke="#7c3aed"/><rect x="190" y="700" width="520" height="80" rx="14" fill="#fee2e2" stroke="#dc2626"/><rect x="190" y="840" width="520" height="80" rx="14" fill="#fee2e2" stroke="#dc2626"/><rect x="190" y="980" width="520" height="80" rx="14" fill="#dbeafe" stroke="#2563eb"/></g><text x="450" y="130" text-anchor="middle" class="t">사용자 요청</text><text x="450" y="270" text-anchor="middle" class="t">Spring AI · 테스트 계획 전달</text><text x="450" y="405" text-anchor="middle" class="t">LLM · 다음 행동 결정</text><text x="450" y="445" text-anchor="middle" class="s">navigate → snapshot → type → click → snapshot</text><text x="450" y="610" text-anchor="middle" class="t">MCP Client → MCP Server</text><text x="450" y="750" text-anchor="middle" class="t">웹 브라우저 조작</text><text x="450" y="890" text-anchor="middle" class="t">실행 결과를 LLM에 반환</text><text x="450" y="1030" text-anchor="middle" class="t">테스트 결과 응답</text><path d="M450 160v60M450 300v60M450 500v60M450 640v60M450 780v60M450 920v60" class="a" fill="none"/></svg>
