<?xml version="1.0" standalone="no"?>
<!DOCTYPE svg PUBLIC "-//W3C//DTD SVG 20010904//EN"
 "http://www.w3.org/TR/2001/REC-SVG-20010904/DTD/svg10.dtd">
<svg version="1.0" xmlns="http://www.w3.org/2000/svg"
 width="512.000000pt" height="512.000000pt" viewBox="0 0 512.000000 512.000000"
 preserveAspectRatio="xMidYMid meet">
<metadata>
Created by potrace 1.14, written by Peter Selinger 2001-2017
</metadata>
<g transform="translate(0.000000,512.000000) scale(0.100000,-0.100000)"
fill="#000000" stroke="none">
<path d="M2420 5037 c-3 -3 -34 -7 -70 -11 -82 -8 -115 -14 -220 -41 -231 -58
-440 -169 -624 -331 -256 -224 -452 -559 -551 -944 -27 -102 -28 -108 -40
-177 -6 -36 -11 -43 -38 -49 -18 -4 -52 -28 -82 -58 -54 -54 -82 -115 -106
-236 -14 -69 -18 -320 -7 -380 5 -25 10 -56 13 -70 12 -64 43 -140 80 -195 32
-48 52 -66 100 -90 l60 -30 38 -116 c74 -228 186 -409 329 -534 38 -33 80 -66
93 -73 14 -7 25 -17 25 -22 0 -5 -33 -32 -74 -59 -191 -129 -396 -315 -535
-485 -93 -114 -229 -321 -242 -368 -39 -146 32 -265 228 -381 45 -26 101 -54
125 -62 23 -8 52 -19 63 -24 11 -5 29 -12 40 -14 11 -3 56 -15 100 -27 205
-55 570 -117 865 -145 36 -4 75 -8 87 -10 173 -27 713 -27 971 1 286 30 360
39 452 54 30 5 73 12 95 16 157 23 451 93 565 135 151 55 312 165 365 249 52
83 47 190 -14 291 -60 97 -163 241 -225 313 -59 68 -223 235 -262 266 -11 8
-42 33 -69 56 -28 22 -96 74 -152 114 -57 40 -103 76 -103 80 0 4 7 11 17 14
32 13 160 132 213 198 100 127 191 309 235 473 16 59 19 63 57 74 83 25 168
146 198 282 12 54 13 55 49 57 116 7 208 80 246 192 25 77 33 158 34 364 1
195 1 199 24 220 52 48 69 151 39 227 -55 138 -239 172 -347 65 -92 -92 -80
-241 24 -319 l39 -29 -3 -91 c-7 -214 -29 -357 -56 -357 -5 0 -12 0 -16 0 -4
0 -9 17 -11 37 -6 77 -34 200 -59 254 -28 65 -83 121 -133 139 l-35 12 -29
127 c-109 490 -337 868 -676 1121 -142 106 -402 227 -548 255 -156 30 -221 37
-367 41 -94 3 -173 3 -175 1z m362 -91 c16 -2 47 -7 70 -11 143 -23 361 -104
489 -181 409 -247 670 -655 784 -1224 1 -8 6 -35 10 -60 4 -25 9 -53 11 -64
19 -103 26 -528 11 -656 -59 -480 -214 -802 -472 -980 -88 -60 -263 -134 -367
-154 -13 -2 -43 -9 -68 -15 -127 -29 -200 -40 -388 -58 -154 -16 -633 -7 -727
12 -11 3 -40 7 -65 10 -177 20 -400 80 -522 140 -131 65 -226 144 -317 265
-116 154 -218 418 -247 635 -3 28 -8 58 -9 67 -21 106 -28 475 -12 633 16 165
57 363 107 517 158 482 459 835 865 1012 82 35 231 82 295 92 19 3 37 7 41 9
3 2 39 7 80 11 40 3 76 8 78 10 5 4 319 -4 353 -10z m1891 -1130 c44 -18 71
-61 73 -119 2 -43 -1 -52 -35 -87 -37 -39 -53 -45 -116 -41 -60 3 -105 53
-110 122 -7 101 90 166 188 125z m-3788 -468 c-10 -79 -15 -506 -5 -558 4 -25
11 -72 14 -105 8 -80 16 -137 21 -152 7 -22 -12 -14 -45 20 -71 70 -112 212
-113 392 -3 218 27 355 90 420 19 19 37 35 40 35 3 0 2 -24 -2 -52z m3417 -24
c71 -131 85 -438 29 -624 -11 -36 -32 -83 -46 -105 -25 -38 -72 -81 -80 -73
-2 2 0 21 5 43 9 40 13 76 29 215 10 83 7 458 -4 559 l-7 65 24 -16 c12 -8 35
-37 50 -64z m-2741 -1713 c116 -51 332 -103 559 -135 70 -10 255 -23 348 -25
l53 -1 -3 -102 -3 -102 -95 2 c-91 3 -165 8 -240 17 -19 3 -60 7 -90 10 -30 4
-107 15 -170 26 -63 11 -128 23 -145 26 -117 20 -465 137 -472 159 -2 6 7 16
19 22 13 6 57 36 98 66 41 30 80 55 86 55 6 1 31 -8 55 -18z m2160 -51 c54
-39 99 -72 99 -74 0 -2 -21 -11 -47 -21 -27 -10 -61 -24 -78 -31 -62 -27 -294
-93 -384 -109 -19 -3 -37 -7 -40 -9 -3 -2 -28 -7 -54 -10 -26 -4 -71 -11 -98
-16 -28 -6 -79 -13 -113 -16 -33 -3 -63 -7 -66 -9 -4 -3 -183 -15 -297 -20
l-43 -2 0 104 0 103 53 1 c57 1 87 3 223 13 50 4 100 8 111 10 11 3 44 7 74
11 48 6 107 17 249 46 52 11 209 61 260 83 19 8 39 15 43 16 5 0 53 -32 108
-70z m-2204 -245 c98 -30 236 -65 318 -81 83 -15 258 -41 335 -48 30 -3 78 -8
105 -11 28 -3 94 -6 148 -7 l97 -2 0 -504 0 -504 -137 6 c-76 4 -158 8 -183
11 -25 2 -76 7 -115 10 -80 7 -127 12 -240 26 -44 6 -98 13 -120 15 -22 3 -62
9 -90 14 -27 5 -66 12 -85 14 -19 3 -44 7 -55 9 -11 3 -36 7 -55 11 -230 41
-415 91 -532 143 l-39 17 54 51 c194 183 351 483 343 656 -3 63 -38 145 -84
199 l-29 34 33 27 34 27 90 -39 c50 -22 143 -55 207 -74z m2418 83 c30 -26 34
-33 21 -40 -55 -31 -112 -176 -102 -262 19 -178 157 -428 329 -597 41 -40 57
-63 50 -70 -44 -44 -502 -157 -783 -194 -25 -3 -56 -8 -70 -10 -63 -9 -109
-15 -160 -21 -30 -3 -68 -7 -85 -9 -32 -4 -112 -12 -205 -19 -30 -3 -117 -8
-193 -11 l-137 -6 2 502 3 503 40 2 c205 11 265 15 295 19 19 2 58 7 85 10 73
9 174 25 220 35 22 5 56 12 75 15 128 22 362 94 490 151 41 18 78 34 82 34 4
0 24 -14 43 -32z"/>
<path d="M2507 4344 c-1 -1 -38 -5 -82 -8 -342 -29 -629 -155 -837 -369 -173
-178 -270 -383 -317 -667 -15 -89 -5 -425 14 -490 2 -8 7 -37 11 -65 3 -27 21
-95 39 -151 100 -306 271 -506 540 -635 87 -42 243 -92 324 -105 14 -2 35 -6
46 -9 123 -26 503 -24 655 5 435 82 708 293 854 658 43 107 83 273 94 387 13
149 7 393 -12 485 -52 246 -156 441 -320 601 -243 236 -540 350 -949 363 -32
1 -59 1 -60 0z m815 -448 c75 -49 72 -170 -6 -221 -32 -21 -95 -21 -134 -1
-39 20 -64 67 -64 119 2 100 118 160 204 103z"/>
</g>
</svg>
